<?xml version="1.0" standalone="no"?>
<!DOCTYPE svg PUBLIC "-//W3C//DTD SVG 20010904//EN"
 "http://www.w3.org/TR/2001/REC-SVG-20010904/DTD/svg10.dtd">
<svg version="1.0" xmlns="http://www.w3.org/2000/svg"
 width="160.000000pt" height="160.000000pt" viewBox="0 0 160.000000 160.000000"
 preserveAspectRatio="xMidYMid meet">
<metadata>
Created by potrace 1.11, written by Peter Selinger 2001-2013
</metadata>
<g transform="translate(0.000000,160.000000) scale(0.100000,-0.100000)"
fill="#000000" stroke="none">
<path d="M757 1504 c-1 -1 -27 -4 -57 -8 -189 -20 -384 -146 -494 -319 -33
-51 -83 -165 -91 -207 -28 -148 -24 -267 14 -385 60 -191 220 -362 410 -439
356 -144 769 33 915 394 26 63 29 76 42 150 16 87 5 232 -25 327 -20 66 -75
163 -127 227 -136 165 -314 252 -537 261 -26 1 -48 1 -50 -1z m153 -59 c106
-19 177 -48 266 -111 110 -77 202 -198 242 -319 118 -352 -62 -713 -419 -840
-90 -32 -257 -37 -359 -10 -341 89 -549 423 -480 766 54 263 263 467 525 513
71 12 161 13 225 1z"/>
<path d="M580 1173 c-69 -8 -161 -33 -208 -57 -113 -58 -164 -146 -168 -296
-6 -177 48 -322 165 -440 73 -73 129 -110 218 -142 82 -29 106 -32 213 -33
114 0 151 7 239 42 226 90 368 307 360 551 -5 152 -65 259 -177 313 -100 49
-174 61 -397 63 -116 2 -226 1 -245 -1z m515 -68 c122 -33 191 -82 229 -165
28 -62 32 -226 7 -308 -57 -185 -185 -307 -379 -363 -62 -17 -226 -21 -277 -7
-11 4 -33 10 -50 14 -63 16 -153 71 -216 134 -113 112 -167 257 -157 424 11
173 102 257 310 286 103 14 463 5 533 -15z"/>
<path d="M654 1048 c-204 -17 -286 -73 -312 -216 -9 -52 -9 -68 3 -152 13 -92
95 -227 129 -214 22 9 20 19 -15 70 -55 80 -73 142 -71 245 2 170 97 223 395
221 138 0 147 1 147 19 0 11 -9 21 -22 24 -41 8 -171 10 -254 3z"/>
</g>
</svg>
